<?xml version="1.0" standalone="no"?>
<!DOCTYPE svg PUBLIC "-//W3C//DTD SVG 20010904//EN"
 "http://www.w3.org/TR/2001/REC-SVG-20010904/DTD/svg10.dtd">
<svg version="1.0" xmlns="http://www.w3.org/2000/svg"
 width="560.000000pt" height="560.000000pt" viewBox="0 0 560.000000 560.000000"
 preserveAspectRatio="xMidYMid meet">

<g transform="translate(0.000000,560.000000) scale(0.100000,-0.100000)"
fill="#000000" stroke="none">
<path d="M2620 5553 c-36 -19 -621 -313 -1302 -654 -931 -466 -1243 -627
-1262 -650 -25 -30 -26 -35 -26 -165 l0 -134 36 -40 c20 -22 39 -38 41 -36 3
3 10 0 17 -5 6 -6 44 -28 83 -50 l73 -39 2 -1023 c3 -1115 0 -1052 62 -1098
44 -34 128 -34 175 0 64 46 61 -2 61 1021 0 511 3 930 8 930 4 0 27 -12 52
-26 40 -23 283 -160 975 -549 110 -62 358 -202 550 -312 193 -110 401 -228
462 -263 l113 -63 2 -1146 c3 -1087 4 -1147 21 -1173 51 -75 180 -77 247 -3
l25 27 1 346 c1 191 2 705 3 1142 l2 795 52 31 c29 17 63 35 77 39 14 4 354
172 755 373 653 326 1051 522 1061 522 2 0 5 -363 6 -807 2 -658 6 -813 17
-834 50 -98 207 -102 260 -8 21 36 21 46 21 916 l0 880 126 59 c69 32 134 69
145 82 16 21 19 42 19 151 0 80 -5 135 -13 150 -6 13 -46 43 -87 66 -308 171
-612 342 -1100 620 -311 177 -592 337 -625 355 -32 18 -134 76 -225 130 -196
115 -428 247 -635 360 -82 45 -163 90 -180 100 -30 17 -31 17 -95 -17z m-80
-1543 c0 -588 -2 -1070 -5 -1070 -5 0 -227 125 -650 365 -176 100 -342 194
-370 210 -27 15 -95 53 -150 85 -99 57 -400 228 -688 390 -81 46 -147 86 -147
89 0 4 199 106 443 228 243 121 691 345 995 497 304 152 557 276 562 276 6 0
10 -401 10 -1070z m760 807 c157 -88 296 -168 310 -177 14 -9 126 -74 250
-143 461 -258 1184 -674 1186 -683 2 -8 -2107 -1065 -2139 -1072 -8 -2 -44 13
-80 33 l-66 36 37 34 37 34 1 348 c1 191 2 685 2 1096 l2 748 88 -47 c48 -26
215 -119 372 -207z"/>
</g>
</svg>
